<svg width="20" height="20" viewBox="0 0 20 20" fill="none" xmlns="http://www.w3.org/2000/svg">
<g clip-path="url(#clip0_40000055_51090)">
<rect width="20" height="20" rx="3" fill="#224E73"/>
<path d="M10 20C15.5228 20 20 15.5228 20 10C20 4.47715 15.5228 0 10 0C4.47715 0 0 4.47715 0 10C0 15.5228 4.47715 20 10 20Z" fill="#224E73"/>
<path d="M11.9688 7.52881C12.5383 7.52881 13 7.0671 13 6.49756C13 5.92802 12.5383 5.46631 11.9688 5.46631C11.3992 5.46631 10.9375 5.92802 10.9375 6.49756C10.9375 7.0671 11.3992 7.52881 11.9688 7.52881Z" fill="#F4F6FC"/>
<path d="M8.68749 5.46631H7V14.4663H8.68749V5.46631Z" fill="#F4F6FC"/>
<path d="M12.8125 8.09204H11.125V14.467H12.8125V8.09204Z" fill="#F4F6FC"/>
<path d="M7.5625 10.7795V12.467H12.25V10.7795H7.5625Z" fill="#F4F6FC"/>
</g>
<defs>
<clipPath id="clip0_40000055_51090">
<rect width="20" height="20" rx="3" fill="white"/>
</clipPath>
</defs>
</svg>
